<svg width="170" height="22" viewBox="0 0 170 22" fill="none" xmlns="http://www.w3.org/2000/svg">
<path d="M0 22V0H7.71284C9.13 0 10.312 0.239909 11.2589 0.719727C12.2057 1.19954 12.9174 1.86556 13.394 2.71777C13.8706 3.56283 14.1089 4.53678 14.1089 5.63965C14.1089 6.49902 13.9584 7.25456 13.6574 7.90625C13.3564 8.55078 12.9425 9.08073 12.4158 9.49609C11.8953 9.9043 11.2996 10.1943 10.6287 10.3662V10.5811C11.3623 10.6169 12.049 10.8532 12.6886 11.29C13.3344 11.7269 13.858 12.3392 14.2594 13.127C14.6607 13.9076 14.8613 14.8385 14.8613 15.9199C14.8613 17.0872 14.6074 18.1292 14.0995 19.0459C13.5978 19.9554 12.8547 20.6751 11.8703 21.2051C10.8858 21.735 9.67241 22 8.23017 22H0ZM4.07276 18.1973H7.39304C8.52802 18.1973 9.35574 17.9502 9.8762 17.4561C10.3967 16.9548 10.6569 16.2887 10.6569 15.458C10.6569 14.8493 10.5283 14.3122 10.2713 13.8467C10.0142 13.3812 9.64733 13.016 9.17076 12.751C8.70046 12.486 8.13924 12.3535 7.4871 12.3535H4.07276V18.1973ZM4.07276 9.20606H7.09205C7.65014 9.20606 8.14552 9.09505 8.57819 8.87305C9.01713 8.64388 9.36201 8.32162 9.61284 7.90625C9.86993 7.49089 9.99848 6.99316 9.99848 6.41309C9.99848 5.61817 9.75079 4.97721 9.25541 4.49023C8.7663 4.00325 8.07027 3.75976 7.1673 3.75976H4.07276V9.20606Z" fill="#A6B762"/>
<path d="M17.5114 22V4.54542H25.1114C26.5662 4.54542 27.8078 4.78122 28.8362 5.25281C29.8708 5.71872 30.6578 6.38065 31.197 7.23861C31.7426 8.09088 32.0154 9.09372 32.0154 10.2471C32.0154 11.4062 31.7394 12.4034 31.1876 13.2386C30.6358 14.0682 29.8363 14.7045 28.7891 15.1477C27.7482 15.5909 26.4878 15.8125 25.008 15.8125H19.9194V12.8466H24.3495C25.1271 12.8466 25.773 12.75 26.2872 12.5568C26.8013 12.3636 27.1839 12.0738 27.4347 11.6875C27.6918 11.3011 27.8203 10.821 27.8203 10.2471C27.8203 9.66759 27.6918 9.17895 27.4347 8.78122C27.1839 8.3835 26.7982 8.08236 26.2778 7.87781C25.7636 7.66758 25.1146 7.56247 24.3307 7.56247H21.5842V22H17.5114ZM27.9144 14.0568L32.702 22H28.206L23.5218 14.0568H27.9144Z" fill="#A6B762"/>
<path d="M38.2138 22H33.8495L40.4995 4.54542H45.748L52.3885 22H48.0242L43.199 8.53406H43.0485L38.2138 22ZM37.9411 15.1392H48.2499V18.0199H37.9411V15.1392Z" fill="#A6B762"/>
<path d="M70.8194 4.54542V22H67.3016L58.9209 11.0142H58.7799V22H54.7071V4.54542H58.2813L66.5962 15.5227H66.7655V4.54542H70.8194Z" fill="#A6B762"/>
<path d="M81.0131 22H74.1844V4.54542H81.0695C83.0071 4.54542 84.6751 4.89485 86.0734 5.59372C87.4718 6.2869 88.5472 7.28406 89.2997 8.5852C90.0584 9.88634 90.4378 11.4432 90.4378 13.2557C90.4378 15.0738 90.0584 16.6364 89.2997 17.9432C88.5472 19.25 87.4655 20.2528 86.0546 20.9517C84.65 21.6506 82.9695 22 81.0131 22ZM78.2571 18.8381H80.8438C82.0477 18.8381 83.0604 18.6449 83.8819 18.2585C84.7096 17.8665 85.3304 17.2614 85.7442 16.4432C86.1644 15.6193 86.3744 14.5568 86.3744 13.2557C86.3744 11.9659 86.1644 10.9119 85.7442 10.0937C85.3304 9.27554 84.7127 8.67327 83.8913 8.2869C83.0698 7.90054 82.0571 7.70736 80.8532 7.70736H78.2571V18.8381Z" fill="#A6B762"/>
<path d="M109.567 4.54542V22H106.049L97.6686 11.0142H97.5275V22H93.4547V4.54542H97.029L105.344 15.5227H105.513V4.54542H109.567Z" fill="#A6B762"/>
<path d="M116.252 22H111.888L118.538 4.54542H123.786L130.427 22H126.063L121.237 8.53406H121.087L116.252 22ZM115.98 15.1392H126.288V18.0199H115.98V15.1392Z" fill="#A6B762"/>
<path d="M132.746 4.54542H137.768L143.073 16.2727H143.299L148.604 4.54542H153.627V22H149.676V10.6392H149.516L144.531 21.9148H141.841L136.856 10.5966H136.696V22H132.746V4.54542Z" fill="#A6B762"/>
<path d="M156.982 22V0H169.962V3.83496H161.055V9.07715H169.295V12.9121H161.055V18.165H170V22H156.982Z" fill="#A6B762"/>
</svg>
