<svg width="28" height="28" viewBox="0 0 28 28" fill="none" xmlns="http://www.w3.org/2000/svg">
<path fill-rule="evenodd" clip-rule="evenodd" d="M20.6751 15.4379C20.9127 15.7231 21.0272 16.0909 20.9936 16.4606C20.96 16.8302 20.781 17.1714 20.4959 17.4091L14.8959 22.0753C14.6096 22.3024 14.2458 22.4086 13.8823 22.3712C13.5187 22.3337 13.1842 22.1556 12.9502 21.8748C12.7162 21.594 12.6013 21.2329 12.6301 20.8685C12.6588 20.5042 12.8288 20.1655 13.1039 19.9249L18.7039 15.2573C18.9893 15.0199 19.3573 14.9056 19.7269 14.9394C20.0966 14.9733 20.4376 15.1526 20.6751 15.4379Z" fill="#22281B"/>
<path fill-rule="evenodd" clip-rule="evenodd" d="M7.32472 15.4379C7.56222 15.1526 7.90329 14.9733 8.27293 14.9394C8.64258 14.9056 9.01054 15.0199 9.29592 15.2573L14.8959 19.9249C15.0422 20.0409 15.1637 20.185 15.2534 20.3487C15.3432 20.5124 15.3992 20.6924 15.4184 20.8781C15.4375 21.0638 15.4193 21.2514 15.3648 21.43C15.3104 21.6086 15.2208 21.7744 15.1012 21.9178C14.9817 22.0612 14.8348 22.1793 14.6689 22.2651C14.5031 22.3508 14.3218 22.4026 14.1357 22.4172C13.9496 22.4319 13.7625 22.4092 13.5853 22.3505C13.4081 22.2917 13.2444 22.1982 13.1039 22.0753L7.50392 17.4091C7.21886 17.1714 7.03985 16.8302 7.00624 16.4606C6.97264 16.0909 7.08719 15.7231 7.32472 15.4379Z" fill="#22281B"/>
<path fill-rule="evenodd" clip-rule="evenodd" d="M13.9999 19.6001C13.6286 19.6001 13.2725 19.4526 13.0099 19.19C12.7474 18.9275 12.5999 18.5714 12.5999 18.2001V7.0001C12.5999 6.62879 12.7474 6.2727 13.0099 6.01015C13.2725 5.7476 13.6286 5.6001 13.9999 5.6001C14.3712 5.6001 14.7273 5.7476 14.9898 6.01015C15.2524 6.2727 15.3999 6.62879 15.3999 7.0001V18.2001C15.3999 18.5714 15.2524 18.9275 14.9898 19.19C14.7273 19.4526 14.3712 19.6001 13.9999 19.6001Z" fill="#22281B"/>
</svg>
