<svg width="24" height="24" viewBox="0 0 24 24" fill="none" xmlns="http://www.w3.org/2000/svg">
<path fill-rule="evenodd" clip-rule="evenodd" d="M14.3851 15.4458C13.0372 16.5227 11.3282 17.0427 9.60898 16.8989C7.88975 16.7551 6.29084 15.9584 5.14064 14.6725C3.99044 13.3867 3.37626 11.7092 3.42425 9.98462C3.47223 8.26005 4.17874 6.61932 5.39866 5.3994C6.61859 4.17947 8.25932 3.47296 9.98389 3.42498C11.7085 3.37699 13.3859 3.99117 14.6718 5.14137C15.9577 6.29157 16.7543 7.89048 16.8981 9.60971C17.042 11.3289 16.522 13.038 15.4451 14.3858L20.6011 19.5408C20.6748 19.6095 20.7339 19.6923 20.7749 19.7843C20.8159 19.8763 20.8379 19.9756 20.8397 20.0763C20.8415 20.177 20.8229 20.277 20.7852 20.3704C20.7475 20.4638 20.6913 20.5486 20.6201 20.6199C20.5489 20.6911 20.4641 20.7472 20.3707 20.7849C20.2773 20.8227 20.1773 20.8412 20.0766 20.8394C19.9759 20.8376 19.8765 20.8156 19.7845 20.7746C19.6926 20.7336 19.6098 20.6745 19.5411 20.6008L14.3851 15.4458ZM6.45909 13.8838C5.72513 13.1498 5.22524 12.2146 5.0226 11.1966C4.81996 10.1785 4.92366 9.12326 5.3206 8.16412C5.71754 7.20498 6.3899 6.38504 7.2527 5.80792C8.11551 5.2308 9.13003 4.9224 10.1681 4.9217C11.2061 4.921 12.221 5.22804 13.0846 5.804C13.9482 6.37996 14.6216 7.19899 15.0199 8.15759C15.4181 9.11619 15.5232 10.1713 15.322 11.1897C15.1207 12.208 14.6221 13.1438 13.8891 13.8788L13.8841 13.8838L13.8791 13.8878C12.8942 14.8704 11.5595 15.422 10.1683 15.4212C8.777 15.4205 7.44293 14.8675 6.45909 13.8838Z" fill="#3F3F37"/>
</svg>
