<svg width="23" height="23" viewBox="0 0 23 23" fill="none" xmlns="http://www.w3.org/2000/svg">
<path fill-rule="evenodd" clip-rule="evenodd" d="M9.58317 2.875C10.2221 2.875 10.8609 3.11778 11.4998 3.60333C12.1387 3.11778 12.7776 2.875 13.4165 2.875H19.1665C19.6748 2.875 20.1623 3.07693 20.5218 3.43638C20.8812 3.79582 21.0832 4.28333 21.0832 4.79167V17.25C21.0832 17.7583 20.8812 18.2458 20.5218 18.6053C20.1623 18.9647 19.6748 19.1667 19.1665 19.1667H12.4582C12.4582 19.6957 12.0269 20.125 11.4998 20.125C10.9728 20.125 10.5415 19.6938 10.5415 19.1667H3.83317C3.32484 19.1667 2.83733 18.9647 2.47788 18.6053C2.11844 18.2458 1.9165 17.7583 1.9165 17.25V4.79167C1.9165 4.28333 2.11844 3.79582 2.47788 3.43638C2.83733 3.07693 3.32484 2.875 3.83317 2.875H9.58317Z" fill="#9F9F9B"/>
</svg>
