<svg width="23" height="23" viewBox="0 0 23 23" fill="none" xmlns="http://www.w3.org/2000/svg">
<path d="M11.4998 20.125L10.1103 18.8791C8.49706 17.4257 7.16338 16.1718 6.10921 15.1177C5.05505 14.0635 4.2165 13.117 3.59359 12.2781C2.97067 11.4393 2.53559 10.6688 2.28834 9.96663C2.04109 9.26449 1.91714 8.54574 1.9165 7.81038C1.9165 6.30899 2.41963 5.05518 3.42588 4.04893C4.43213 3.04268 5.68595 2.53955 7.18734 2.53955C8.01789 2.53955 8.80852 2.71525 9.55921 3.06663C10.3099 3.41802 10.9568 3.91316 11.4998 4.55205C12.0429 3.91316 12.6898 3.41802 13.4405 3.06663C14.1912 2.71525 14.9818 2.53955 15.8123 2.53955C17.3137 2.53955 18.5675 3.04268 19.5738 4.04893C20.58 5.05518 21.0832 6.30899 21.0832 7.81038C21.0832 8.54511 20.9595 9.26386 20.7123 9.96663C20.465 10.6694 20.0296 11.4399 19.4061 12.2781C18.7825 13.1164 17.944 14.0629 16.8905 15.1177C15.8369 16.1725 14.5033 17.4263 12.8894 18.8791L11.4998 20.125Z" fill="#9F9F9B"/>
</svg>
