<svg width="23" height="23" viewBox="0 0 23 23" fill="none" xmlns="http://www.w3.org/2000/svg">
<path fill-rule="evenodd" clip-rule="evenodd" d="M14.6147 4.7915C14.6147 3.83838 14.9934 2.9243 15.6673 2.25034C16.3413 1.57638 17.2554 1.19775 18.2085 1.19775C19.1616 1.19775 20.0757 1.57638 20.7497 2.25034C21.4236 2.9243 21.8022 3.83838 21.8022 4.7915C21.8022 5.74463 21.4236 6.65871 20.7497 7.33267C20.0757 8.00663 19.1616 8.38525 18.2085 8.38525C17.2554 8.38525 16.3413 8.00663 15.6673 7.33267C14.9934 6.65871 14.6147 5.74463 14.6147 4.7915Z" fill="#9F9F9B"/>
<path fill-rule="evenodd" clip-rule="evenodd" d="M13.9217 2.15625C13.3283 3.12012 13.0773 4.25592 13.2092 5.38008C13.3411 6.50424 13.8482 7.55109 14.6486 8.35145C15.4489 9.15181 16.4958 9.6589 17.6199 9.7908C18.7441 9.92269 19.8799 9.67166 20.8438 9.07829V14.375C20.8438 16.0906 20.1622 17.736 18.9491 18.9491C17.736 20.1622 16.0906 20.8438 14.375 20.8438H8.625C6.90938 20.8438 5.26403 20.1622 4.0509 18.9491C2.83778 17.736 2.15625 16.0906 2.15625 14.375V8.625C2.15625 6.90938 2.83778 5.26403 4.0509 4.0509C5.26403 2.83778 6.90938 2.15625 8.625 2.15625H13.9217Z" fill="#9F9F9B"/>
</svg>
