<svg width="24" height="24" viewBox="0 0 24 24" fill="none" xmlns="http://www.w3.org/2000/svg">
<g clip-path="url(#clip0_493_435)">
<path d="M10.3743 14.0556C10.616 13.8252 10.7368 13.54 10.7368 13.2V9.6C10.7368 9.26 10.6156 8.9752 10.3731 8.7456C10.1305 8.516 9.83074 8.4008 9.47368 8.4C9.11663 8.3992 8.81684 8.5144 8.57432 8.7456C8.33179 8.9768 8.21053 9.2616 8.21053 9.6V13.2C8.21053 13.54 8.33179 13.8252 8.57432 14.0556C8.81684 14.286 9.11663 14.4008 9.47368 14.4C9.83074 14.3992 10.1309 14.284 10.3743 14.0544M3.15789 16.8V12.6C2.18947 12.14 1.42105 11.4752 0.852632 10.6056C0.28421 9.736 0 8.7908 0 7.77C0 6.27 0.542316 5 1.62695 3.96C2.71158 2.92 4.04295 2.4 5.62105 2.4C5.87368 2.4 6.13179 2.42 6.39537 2.46C6.65895 2.5 6.91663 2.55 7.16842 2.61C7.69474 1.79 8.37895 1.15 9.22105 0.69C10.0632 0.23 10.9895 0 12 0C13.0105 0 13.9368 0.23 14.7789 0.69C15.6211 1.15 16.3053 1.79 16.8316 2.61C17.0842 2.55 17.3368 2.5 17.5895 2.46C17.8421 2.42 18.1053 2.4 18.3789 2.4C19.9579 2.4 21.2897 2.92 22.3743 3.96C23.4589 5 24.0008 6.27 24 7.77C24 8.79 23.7158 9.7352 23.1474 10.6056C22.5789 11.476 21.8105 12.1408 20.8421 12.6V16.8H3.15789ZM15.4269 14.0556C15.6686 13.8252 15.7895 13.54 15.7895 13.2V9.6C15.7895 9.26 15.6682 8.9752 15.4257 8.7456C15.1832 8.516 14.8834 8.4008 14.5263 8.4C14.1693 8.3992 13.8695 8.5144 13.6269 8.7456C13.3844 8.9768 13.2632 9.2616 13.2632 9.6V13.2C13.2632 13.54 13.3844 13.8252 13.6269 14.0556C13.8695 14.286 14.1693 14.4008 14.5263 14.4C14.8834 14.3992 15.1836 14.284 15.4269 14.0544M5.68421 24C4.98947 24 4.39495 23.7652 3.90063 23.2956C3.40632 22.826 3.15874 22.2608 3.15789 21.6V19.2H20.8421V21.6C20.8421 22.26 20.5949 22.8252 20.1006 23.2956C19.6063 23.766 19.0114 24.0008 18.3158 24H5.68421Z" fill="white"/>
</g>
<defs>
<clipPath id="clip0_493_435">
<rect width="24" height="24" fill="white"/>
</clipPath>
</defs>
</svg>
